<?xml version="1.0" standalone="no"?>
<!DOCTYPE svg PUBLIC "-//W3C//DTD SVG 20010904//EN"
 "http://www.w3.org/TR/2001/REC-SVG-20010904/DTD/svg10.dtd">
<svg version="1.0" xmlns="http://www.w3.org/2000/svg"
 width="1004.000000pt" height="590.000000pt" viewBox="0 0 1004.000000 590.000000"
 preserveAspectRatio="xMidYMid meet">

<g transform="translate(0.000000,590.000000) scale(0.100000,-0.100000)"
fill="#000000" stroke="none">
<path d="M3734 4375 c-23 -49 -24 -50 -76 -55 l-53 -5 3 -45 c1 -25 10 -66 19
-91 23 -66 14 -82 -41 -74 l-43 7 -7 -74 c-8 -81 -45 -171 -83 -201 -31 -25
-29 -38 16 -115 57 -99 58 -110 11 -172 -55 -73 -81 -132 -83 -183 -2 -35 5
-53 36 -98 45 -65 46 -93 10 -180 -23 -56 -27 -81 -29 -192 -2 -71 -6 -132 -8
-136 -10 -16 15 -228 31 -265 l17 -38 -32 -27 -33 -26 -2 -495 -2 -495 50 -7
c28 -3 512 -7 1077 -7 934 -1 1027 0 1021 15 -3 10 -8 12 -12 5 -5 -7 -243
-10 -764 -10 l-757 0 0 25 c0 26 36 104 48 104 4 0 21 12 37 28 56 50 79 67
70 53 -5 -10 -4 -12 3 -7 7 4 12 13 12 20 0 18 75 88 85 79 4 -5 5 -2 1 5 -5
8 2 23 20 38 38 36 40 95 4 104 -23 5 -28 17 -58 145 -19 77 -35 150 -38 163
-4 22 -6 22 -189 22 l-185 0 -6 -27 c-3 -16 -22 -88 -41 -160 l-36 -133 -139
0 -139 0 7 38 c3 20 22 107 41 192 31 141 76 352 138 647 13 61 31 140 39 175
9 34 30 128 47 208 17 80 38 172 45 205 8 33 21 92 28 130 7 39 29 142 49 230
19 88 54 246 77 350 51 240 53 246 65 248 11 2 63 -190 64 -235 1 -15 19 -100
40 -190 21 -90 60 -253 86 -363 26 -110 65 -272 85 -360 21 -88 57 -241 80
-340 23 -99 59 -252 80 -340 20 -88 50 -214 65 -280 15 -66 31 -124 36 -129 5
-6 9 80 8 210 0 221 -10 319 -45 464 -10 41 -18 90 -18 108 0 18 -3 27 -7 21
-4 -6 -10 12 -14 42 -4 29 -11 60 -16 69 -8 15 -16 49 -43 175 -6 33 -15 66
-20 73 -17 27 9 9 72 -53 36 -36 70 -65 74 -65 4 0 8 227 8 505 0 296 -4 505
-9 505 -20 0 -119 -91 -154 -141 -20 -30 -50 -92 -66 -138 -31 -89 -51 -121
-51 -83 0 12 -4 30 -9 40 -11 20 -33 146 -32 180 1 13 -4 20 -9 17 -16 -10
-12 61 5 75 17 14 29 71 21 98 -4 11 -15 30 -26 43 -11 13 -23 29 -28 34 -5 6
-21 32 -36 58 -25 41 -34 49 -82 63 -51 15 -65 34 -24 34 10 0 22 5 25 10 4 7
363 11 1038 12 568 0 1019 3 1002 4 -16 2 -547 5 -1179 6 l-1149 3 -23 -50z"/>
<path d="M6106 4373 c-33 -107 -86 -153 -174 -153 -27 0 -69 -7 -92 -15 -58
-20 -92 -19 -113 5 -22 26 -37 18 -37 -20 0 -31 -25 -63 -44 -57 -6 2 -18 24
-26 50 -20 63 -37 78 -55 52 -8 -11 -18 -25 -23 -31 -5 -6 -13 -20 -16 -32
-12 -38 -39 -25 -66 31 -29 61 -60 71 -114 38 -26 -16 -50 -21 -107 -21 -67 0
-75 -2 -94 -26 -20 -25 -25 -26 -153 -32 -132 -5 -133 -5 -160 20 -46 44 -68
51 -101 33 -17 -8 -36 -15 -43 -15 -25 0 -118 -49 -118 -63 0 -7 16 -42 35
-77 19 -36 35 -71 35 -78 0 -13 655 -1331 668 -1344 5 -5 6 224 4 507 l-5 515
250 0 c188 0 253 -3 261 -12 5 -7 26 -53 46 -103 67 -171 133 -319 143 -322 6
-2 21 25 33 59 36 98 129 327 146 359 12 24 21 29 52 30 20 1 89 4 152 8 l115
6 3 373 2 372 -193 0 -193 0 -18 -57z"/>
<path d="M6516 3622 c-5 -9 -30 -70 -131 -317 -88 -218 -141 -345 -192 -460
l-47 -110 -6 -438 -5 -437 -150 -3 -150 -2 -5 430 -5 430 -33 85 c-18 47 -54
148 -81 225 -60 173 -98 276 -106 283 -3 3 -5 -399 -5 -894 0 -770 2 -906 15
-948 12 -40 13 -51 3 -58 -9 -5 -4 -8 12 -8 18 0 31 -9 43 -30 22 -37 35 -38
39 -2 l3 27 201 3 c199 2 202 3 208 25 3 12 6 32 6 43 0 29 32 68 96 115 56
41 64 60 39 93 -21 27 -19 36 8 36 38 0 84 36 97 75 14 42 8 111 -15 176 -22
61 -18 103 12 162 23 43 28 64 27 127 0 48 -7 95 -19 130 -39 108 -15 304 50
422 42 77 44 114 9 178 l-26 48 121 295 c66 163 121 298 121 301 0 9 -128 7
-134 -2z m-718 -2061 c63 -32 222 -127 236 -141 5 -5 -59 -9 -148 -9 l-156 -1
0 90 c0 49 2 90 5 90 3 0 31 -13 63 -29z"/>
<path d="M4451 2934 c0 -11 3 -14 6 -6 3 7 2 16 -1 19 -3 4 -6 -2 -5 -13z"/>
<path d="M4808 2403 l-3 -538 -222 -3 -223 -2 0 -25 c0 -27 -17 -25 233 -27
27 -1 28 -2 22 -37 -4 -24 -17 -45 -41 -64 -35 -30 -43 -54 -22 -75 24 -24 80
-13 174 35 89 45 94 46 132 35 31 -10 43 -19 51 -44 26 -74 101 -105 135 -56
l16 22 30 -32 c28 -31 31 -32 57 -18 16 8 42 26 58 41 17 15 40 37 52 48 19
17 26 18 50 8 16 -6 39 -29 53 -50 30 -50 110 -91 110 -57 0 15 -105 236 -390
821 -56 116 -117 244 -135 285 -42 97 -126 270 -131 270 -2 0 -5 -242 -6 -537z"/>
<path d="M4490 2784 c0 -8 5 -12 10 -9 6 3 10 10 10 16 0 5 -4 9 -10 9 -5 0
-10 -7 -10 -16z"/>
<path d="M4491 2744 c0 -11 3 -14 6 -6 3 7 2 16 -1 19 -3 4 -6 -2 -5 -13z"/>
<path d="M4588 1783 c7 -3 16 -2 19 1 4 3 -2 6 -13 5 -11 0 -14 -3 -6 -6z"/>
<path d="M4358 1763 c7 -3 16 -2 19 1 4 3 -2 6 -13 5 -11 0 -14 -3 -6 -6z"/>
<path d="M4286 1697 c3 -10 9 -15 12 -12 3 3 0 11 -7 18 -10 9 -11 8 -5 -6z"/>
<path d="M4370 1700 c0 -5 5 -10 10 -10 6 0 10 5 10 10 0 6 -4 10 -10 10 -5 0
-10 -4 -10 -10z"/>
<path d="M4778 1613 c7 -3 16 -2 19 1 4 3 -2 6 -13 5 -11 0 -14 -3 -6 -6z"/>
</g>
</svg>
