<?xml version="1.0" standalone="no"?>
<!DOCTYPE svg PUBLIC "-//W3C//DTD SVG 20010904//EN"
 "http://www.w3.org/TR/2001/REC-SVG-20010904/DTD/svg10.dtd">
<svg version="1.0" xmlns="http://www.w3.org/2000/svg"
 width="512.000000pt" height="191.000000pt" viewBox="0 0 512.000000 191.000000"
 preserveAspectRatio="xMidYMid meet">

<g transform="translate(0.000000,191.000000) scale(0.100000,-0.100000)"
fill="#000000" stroke="none">
<path d="M0 955 l0 -955 2560 0 2560 0 0 955 0 955 -2560 0 -2560 0 0 -955z
m3213 234 c16 -26 0 -63 -50 -120 -86 -95 -173 -140 -173 -90 0 19 79 95 89
86 9 -9 91 78 91 97 0 24 -8 23 -55 -9 -107 -71 -196 -167 -214 -230 -14 -47
2 -73 46 -73 53 0 127 40 212 116 57 50 79 64 99 62 23 -3 27 -8 30 -46 2 -28
-2 -52 -12 -68 -9 -13 -13 -24 -9 -24 19 1 51 39 62 72 25 76 143 238 173 238
16 0 7 -58 -17 -106 -13 -27 -45 -72 -70 -101 -48 -54 -61 -103 -27 -103 28 1
66 42 89 97 27 66 68 126 124 181 49 48 59 51 59 19 0 -40 -58 -143 -105 -186
-34 -31 -45 -49 -45 -71 0 -58 57 -28 99 51 24 46 95 99 132 99 20 0 29 -5 29
-16 0 -30 -22 -55 -76 -85 -59 -34 -69 -62 -24 -67 29 -3 96 42 106 71 23 69
154 152 154 98 0 -29 -40 -74 -54 -62 -17 14 -79 -49 -71 -72 17 -44 69 -23
150 59 48 49 73 86 46 69 -5 -3 -13 0 -17 6 -8 14 30 49 53 49 9 0 26 11 39
25 27 29 61 35 46 9 -5 -9 -7 -25 -5 -34 5 -17 -39 -60 -61 -60 -15 0 -55 -64
-63 -100 -4 -25 -2 -30 13 -30 22 0 84 55 84 74 0 19 75 96 93 96 10 0 17 -2
17 -5 0 -15 -31 -62 -54 -84 -32 -30 -34 -61 -5 -61 24 0 79 36 79 52 0 37 85
108 129 108 29 0 38 -57 16 -100 -33 -64 1 -43 77 48 25 30 58 43 58 22 0 -5
-13 -25 -30 -43 -46 -53 -35 -56 18 -6 48 47 91 79 104 79 18 0 6 -43 -22 -82
-28 -38 -38 -68 -24 -68 3 0 20 11 36 25 40 33 50 23 14 -14 -40 -41 -93 -68
-107 -54 -14 14 -6 40 27 90 22 32 15 28 -38 -25 -65 -63 -78 -68 -78 -26 l0
22 -47 -25 c-27 -13 -52 -29 -58 -34 -5 -5 -22 -9 -37 -9 -21 0 -32 7 -40 25
l-11 24 -34 -29 c-44 -39 -70 -39 -87 0 l-12 30 -25 -26 c-30 -33 -77 -57 -95
-50 -16 6 -18 39 -4 67 15 28 9 24 -43 -26 -60 -57 -93 -67 -118 -34 -10 13
-19 29 -19 36 0 7 -17 -4 -37 -23 -41 -37 -67 -48 -104 -42 -16 2 -25 11 -27
26 -2 12 -6 22 -8 22 -3 0 -22 -16 -42 -35 -20 -19 -42 -35 -49 -35 -17 0 -43
29 -43 49 0 14 -10 9 -40 -21 -49 -46 -76 -49 -93 -9 -12 28 -12 28 -42 12
-17 -9 -46 -27 -65 -39 -19 -12 -40 -22 -47 -22 -21 0 -43 31 -43 61 l0 29
-47 -37 c-66 -50 -120 -73 -175 -73 -156 -1 -94 197 105 332 110 75 177 94
200 57z m1047 -8 c0 -15 -38 -56 -45 -49 -14 14 5 58 25 58 11 0 20 -4 20 -9z
m-1889 -142 c-16 -55 -48 -104 -100 -155 -43 -44 -55 -89 -25 -101 20 -8 58
29 94 94 31 54 71 90 90 78 13 -8 -8 -49 -45 -88 -29 -31 -30 -60 -1 -65 12
-3 40 19 85 65 59 61 64 68 44 71 -13 2 -23 6 -23 10 0 12 44 52 58 52 8 0 30
14 49 30 34 30 53 38 53 21 0 -5 -7 -14 -15 -21 -14 -11 -14 -14 0 -24 14 -10
13 -14 -9 -35 -14 -13 -35 -29 -48 -35 -24 -12 -53 -57 -63 -98 -6 -24 -4 -28
14 -28 11 0 36 14 56 31 36 32 53 37 32 9 -32 -41 -102 -90 -130 -90 -26 0
-29 3 -25 28 3 15 8 35 12 44 4 9 -15 -5 -42 -33 -58 -58 -87 -63 -106 -18
-10 23 -15 27 -19 16 -10 -25 -82 -68 -101 -61 -9 4 -19 19 -22 33 l-6 27 -38
-39 c-50 -49 -75 -47 -74 7 l1 38 -44 -44 -44 -43 -20 24 c-32 39 -25 76 24
124 40 41 121 87 151 87 20 0 31 -20 17 -29 -6 -4 -9 -15 -6 -23 4 -9 -3 -31
-14 -49 -21 -34 -28 -69 -13 -69 23 0 55 39 91 114 45 94 146 215 164 197 7
-7 6 -24 -2 -52z m-481 26 c19 -23 5 -57 -52 -131 l-51 -67 38 6 c21 3 38 7
40 9 49 70 128 168 132 164 10 -9 -9 -46 -53 -106 -43 -58 -43 -60 -20 -60 36
0 38 -11 5 -48 -18 -20 -38 -32 -54 -32 -25 0 -55 -41 -55 -74 0 -13 -28 -36
-44 -36 -12 0 -6 42 10 72 l16 31 -48 -8 c-34 -5 -53 -14 -68 -33 -49 -62 -63
-75 -75 -68 -9 6 -7 17 9 42 24 42 24 44 6 44 -8 0 -18 5 -21 11 -11 17 23 46
68 58 41 10 91 54 160 139 32 40 28 53 -16 46 -42 -8 -167 -64 -167 -76 0 -10
-60 -48 -77 -48 -16 0 -17 31 -2 64 11 24 107 75 193 102 56 17 111 17 126 -1z
m600 -36 c0 -20 -21 -49 -35 -49 -22 0 -25 15 -9 38 16 23 44 30 44 11z
m-1297 -27 c19 -17 22 -53 7 -83 -13 -23 -88 -63 -150 -78 -76 -20 -77 -23
-10 -37 115 -24 128 -70 35 -134 -70 -48 -128 -65 -176 -51 -61 19 -64 55 -9
139 l22 32 -22 0 c-34 0 -18 23 27 40 22 8 61 34 87 58 51 47 85 48 40 1 -25
-26 -26 -29 -8 -29 30 0 124 47 131 66 7 20 -13 34 -48 34 -38 0 -163 -40
-171 -55 -9 -14 -96 -41 -105 -32 -3 4 6 24 21 46 29 41 83 70 166 90 90 21
132 19 163 -7z m77 -167 c0 -8 -20 -37 -45 -65 -86 -97 -45 -87 64 16 38 35
71 64 75 64 19 0 -9 -58 -79 -164 -19 -29 -19 -29 1 -18 12 6 38 30 58 52 21
23 40 39 44 36 3 -4 -10 -23 -30 -44 -19 -20 -63 -72 -97 -114 -34 -43 -66
-78 -72 -78 -20 0 -7 49 30 113 36 61 42 89 11 51 -41 -48 -80 -36 -80 25 0
40 30 90 77 128 28 23 43 22 43 -2z"/>
<path d="M3438 1098 c-62 -94 -75 -127 -34 -89 25 24 82 129 74 137 -3 3 -21
-19 -40 -48z"/>
<path d="M3584 1107 c-18 -23 -39 -58 -49 -77 l-17 -35 31 29 c29 28 78 112
70 121 -2 1 -18 -16 -35 -38z"/>
<path d="M4285 1035 c-34 -34 -48 -85 -24 -85 23 0 49 22 49 41 0 11 7 33 15
49 21 40 3 38 -40 -5z"/>
<path d="M3703 1045 c-26 -18 -68 -75 -55 -75 12 0 92 70 92 81 0 13 -13 11
-37 -6z"/>
<path d="M3196 940 c-20 -22 -36 -47 -36 -55 0 -21 28 -31 43 -16 15 15 47
111 37 111 -4 0 -24 -18 -44 -40z"/>
<path d="M2287 969 c-26 -40 -45 -75 -41 -78 13 -13 99 118 92 140 -2 6 -25
-22 -51 -62z"/>
<path d="M2068 876 c-53 -31 -88 -66 -88 -88 0 -24 9 -23 41 5 37 30 103 107
93 106 -5 0 -26 -11 -46 -23z"/>
<path d="M930 744 c-24 -36 -24 -36 -5 -51 27 -19 78 -11 126 22 44 29 43 50
-3 59 -69 14 -92 8 -118 -30z"/>
</g>
</svg>
