<?xml version="1.0" standalone="no"?>
<!DOCTYPE svg PUBLIC "-//W3C//DTD SVG 20010904//EN"
 "http://www.w3.org/TR/2001/REC-SVG-20010904/DTD/svg10.dtd">
<svg version="1.0" xmlns="http://www.w3.org/2000/svg"
 width="1247.000000pt" height="636.000000pt" viewBox="0 0 1247.000000 636.000000"
 preserveAspectRatio="xMidYMid meet">

<g transform="translate(0.000000,636.000000) scale(0.100000,-0.100000)"
fill="#000000" stroke="none">
<path d="M7566 5503 c-29 -85 -23 -119 72 -373 62 -166 78 -265 94 -568 24
-454 -22 -1103 -111 -1582 -32 -172 -104 -478 -118 -503 -12 -20 -145 182
-293 448 -61 110 -281 541 -488 958 -207 416 -382 757 -388 757 -22 0 -72 -67
-94 -127 -54 -143 -103 -389 -145 -733 -24 -198 -50 -501 -96 -1139 l-22 -304
46 -44 c34 -32 54 -43 77 -43 30 0 90 24 90 37 0 3 18 184 40 402 77 746 119
1166 131 1294 7 70 15 127 18 127 3 -1 96 -191 205 -423 416 -880 518 -1075
666 -1272 149 -199 296 -284 398 -231 55 29 59 40 91 271 68 491 133 1037 167
1405 57 612 -32 1335 -195 1589 -32 49 -60 73 -105 91 -23 8 -26 6 -40 -37z"/>
<path d="M11304 5512 c-9 -20 -17 -60 -17 -87 0 -48 8 -73 107 -350 54 -152
67 -273 73 -672 10 -657 -48 -1213 -183 -1754 -50 -203 -42 -193 -101 -113
-138 188 -291 472 -743 1382 -197 397 -364 722 -370 722 -6 0 -22 -11 -36 -25
-106 -106 -197 -611 -259 -1435 -68 -916 -64 -832 -43 -862 24 -35 79 -68 112
-68 15 0 39 6 54 14 l27 14 89 879 c49 483 92 896 95 918 l7 40 31 -65 c205
-437 570 -1193 625 -1295 251 -463 483 -666 634 -557 l39 29 48 359 c59 450
109 863 139 1154 32 321 32 780 0 1020 -64 468 -161 736 -282 779 -29 10 -31
8 -46 -27z"/>
<path d="M4030 5019 c-48 -113 -80 -295 -100 -569 -21 -296 -54 -468 -106
-573 -41 -80 -143 -174 -244 -224 -86 -43 -216 -85 -303 -98 l-47 -7 0 278 0
279 46 220 c84 412 69 529 -69 530 l-51 0 -13 -55 c-30 -132 -75 -437 -103
-705 -59 -564 -92 -697 -205 -823 -54 -60 -112 -97 -199 -127 l-61 -21 -3 -53
c-3 -58 9 -81 60 -107 57 -29 100 -16 241 75 52 34 97 61 101 61 3 0 5 -143 4
-317 -3 -303 -2 -321 18 -380 21 -62 72 -151 98 -172 10 -8 25 -5 59 14 45 25
46 27 52 88 4 34 -1 166 -10 292 -19 255 -15 373 16 504 57 245 207 389 459
441 52 11 112 20 133 20 l39 0 -6 -57 c-4 -32 -33 -435 -66 -897 -67 -930 -67
-941 -9 -998 29 -30 60 -36 77 -15 15 18 49 130 66 222 61 314 135 1053 156
1557 7 144 13 272 15 283 5 25 83 73 198 121 91 38 170 99 182 142 6 20 3 22
-37 22 -24 0 -91 -10 -150 -22 -102 -21 -108 -22 -142 -5 l-36 17 0 112 c0
132 16 238 65 437 45 183 65 298 65 374 0 59 -1 62 -44 101 -25 23 -62 51 -84
63 l-40 22 -22 -50z"/>
<path d="M1985 4946 c-152 -35 -279 -109 -405 -237 -248 -251 -465 -710 -620
-1314 -64 -248 -80 -345 -80 -486 0 -367 143 -620 404 -718 156 -58 385 -70
581 -31 255 50 639 206 788 320 63 47 133 127 123 138 -8 8 -259 -76 -508
-169 -333 -124 -481 -159 -680 -159 -174 0 -275 38 -373 141 -101 106 -145
233 -152 439 -4 109 -1 158 16 253 54 298 196 712 356 1035 235 475 514 707
800 665 39 -6 71 -9 73 -8 2 2 -2 22 -9 46 -12 37 -19 45 -69 68 -66 30 -157
37 -245 17z"/>
<path d="M4836 4533 c-3 -16 -31 -201 -61 -413 -66 -456 -92 -591 -141 -730
-59 -171 -119 -275 -216 -377 l-60 -62 39 -10 c21 -5 65 -17 97 -25 32 -8 62
-18 66 -23 5 -4 -14 -96 -40 -204 -57 -234 -67 -298 -50 -338 21 -53 105 -75
181 -50 19 7 36 13 37 15 2 1 16 129 31 282 26 261 30 283 55 327 59 100 197
154 397 155 54 0 56 -1 73 -37 10 -21 133 -290 273 -598 287 -631 357 -772
408 -833 33 -37 41 -42 78 -41 47 1 113 22 110 36 -1 5 -146 344 -324 753
-177 410 -324 752 -326 760 -2 10 10 21 39 32 41 17 150 98 156 117 1 4 -16
11 -39 14 -112 15 -249 117 -310 233 -15 27 -66 182 -113 345 -48 163 -98 325
-111 359 -49 125 -134 254 -206 310 l-37 30 -6 -27z m250 -1044 c41 -114 74
-212 74 -217 0 -24 -74 -35 -197 -29 -69 3 -127 7 -129 10 -8 8 84 573 103
632 5 14 16 -10 40 -85 19 -58 68 -198 109 -311z"/>
<path d="M8531 4258 c-56 -397 -97 -644 -121 -740 -56 -217 -139 -380 -258
-509 l-53 -58 53 -15 c29 -8 74 -20 101 -27 28 -7 47 -17 47 -26 0 -7 -20 -95
-46 -195 -46 -187 -62 -286 -50 -332 9 -35 61 -66 112 -66 49 0 114 25 114 43
0 69 54 532 66 564 20 55 87 115 159 142 97 36 293 54 312 29 5 -7 117 -249
247 -538 401 -883 442 -960 520 -960 40 0 116 21 116 32 0 6 -120 285 -483
1126 l-175 403 57 29 c56 28 141 94 141 110 0 4 -19 10 -42 14 -108 17 -235
113 -300 226 -15 25 -65 177 -112 339 -95 323 -125 406 -180 506 -34 59 -158
205 -175 205 -4 0 -26 -136 -50 -302z m176 -438 c13 -44 61 -185 108 -314 47
-130 85 -238 85 -240 0 -21 -181 -34 -284 -20 -40 6 -46 10 -46 31 0 23 52
344 86 531 10 50 20 92 23 92 3 0 16 -36 28 -80z"/>
<path d="M5315 1130 l-200 -5 -3 -234 c-2 -164 1 -238 9 -247 9 -11 54 -14
210 -14 l199 0 0 30 0 30 -175 0 -175 0 0 80 0 80 163 2 162 3 3 27 3 28 -166
2 -167 3 0 80 0 80 176 3 176 2 0 25 c0 13 -3 25 -7 27 -5 2 -98 1 -208 -2z"/>
<path d="M5930 1124 c-107 -37 -147 -135 -84 -206 21 -22 96 -44 184 -53 137
-14 180 -35 180 -91 0 -37 -22 -57 -81 -75 -57 -17 -170 -12 -235 10 -54 19
-60 19 -71 4 -23 -31 -13 -42 55 -63 128 -40 295 -22 360 38 84 78 35 197 -90
220 -29 6 -93 15 -142 21 -95 11 -126 28 -126 67 0 29 51 71 96 80 55 10 186
-1 222 -18 30 -16 33 -16 43 4 17 31 5 44 -58 61 -74 21 -193 21 -253 1z"/>
<path d="M6565 1131 c-3 -2 -5 -116 -5 -253 l0 -248 35 0 35 0 -2 252 -3 251
-28 1 c-15 1 -30 0 -32 -3z"/>
<path d="M7093 1127 c-107 -41 -173 -133 -173 -241 1 -104 57 -188 158 -237
91 -43 236 -22 307 46 34 31 35 35 35 104 l0 71 -130 0 -130 0 0 -25 c0 -24 1
-24 98 -27 l97 -3 3 -32 c3 -25 -3 -36 -30 -56 -71 -52 -145 -60 -223 -23 -60
28 -77 46 -106 110 -28 64 -22 123 18 180 74 104 216 122 313 39 l42 -36 21
22 22 22 -34 29 c-19 16 -51 37 -70 47 -44 21 -173 27 -218 10z"/>
<path d="M7726 1124 c-3 -9 -6 -123 -6 -255 l0 -239 35 0 35 0 2 198 3 197
163 -202 c89 -112 169 -203 177 -203 7 0 21 7 29 16 14 13 16 50 16 253 0 131
-2 240 -5 243 -3 2 -18 3 -35 0 l-30 -4 -2 -194 -3 -194 -159 200 c-137 173
-162 200 -186 200 -16 0 -30 -7 -34 -16z"/>
<path d="M8590 1121 c-73 -26 -110 -68 -110 -124 0 -85 42 -111 219 -133 115
-14 150 -27 175 -66 17 -28 -9 -67 -60 -89 -74 -33 -206 -26 -305 15 -11 5
-19 -1 -28 -20 -6 -15 -10 -28 -9 -29 2 -1 33 -12 70 -24 135 -45 313 -21 373
50 35 43 35 115 0 153 -36 39 -81 55 -197 67 -152 17 -189 38 -167 96 15 41
55 57 153 61 73 3 101 0 143 -16 l52 -20 10 28 c9 27 7 29 -32 46 -66 26 -219
29 -287 5z"/>
<path d="M4357 1123 c-13 -12 -8 -468 5 -481 18 -18 203 -16 266 3 114 34 187
128 187 240 -1 100 -52 176 -150 221 -44 21 -65 24 -176 24 -69 0 -129 -3
-132 -7z m288 -73 c126 -61 141 -240 26 -317 -48 -33 -101 -44 -184 -41 l-72
3 -3 180 c-1 98 0 186 3 194 9 23 171 10 230 -19z"/>
</g>
</svg>
