<?xml version="1.0" standalone="no"?>
<!DOCTYPE svg PUBLIC "-//W3C//DTD SVG 20010904//EN"
 "http://www.w3.org/TR/2001/REC-SVG-20010904/DTD/svg10.dtd">
<svg version="1.0" xmlns="http://www.w3.org/2000/svg"
 width="1004.000000pt" height="590.000000pt" viewBox="0 0 1004.000000 590.000000"
 preserveAspectRatio="xMidYMid meet">

<g transform="translate(0.000000,590.000000) scale(0.100000,-0.100000)"
fill="#000000" stroke="none">
<path d="M1710 4067 l0 -883 69 68 c59 58 90 77 213 137 l144 70 11 43 c17 61
62 111 99 111 63 0 120 -47 96 -80 -46 -64 -62 -158 -61 -348 l1 -140 13 75
c18 106 49 206 91 288 56 113 112 139 201 93 74 -37 123 -120 142 -238 7 -46
8 -47 15 -18 24 99 70 222 97 261 58 84 130 94 207 29 71 -62 77 -94 66 -400
-12 -350 -10 -583 5 -619 l12 -30 29 35 c57 65 115 197 145 324 15 66 36 137
46 157 30 59 77 107 117 117 42 12 143 3 189 -16 50 -20 104 -73 126 -122 23
-53 33 -181 19 -264 -5 -32 -6 -60 -2 -62 4 -2 25 12 48 33 51 47 58 77 66
266 4 83 12 156 18 163 16 19 58 16 108 -9 51 -26 48 0 37 -253 -4 -91 -3
-126 2 -100 16 69 89 264 111 295 30 42 74 63 113 55 55 -12 107 -53 130 -103
21 -45 22 -59 19 -284 -2 -131 1 -238 6 -238 24 0 102 146 152 285 47 132 49
135 60 135 21 0 23 -34 6 -114 -33 -152 -96 -304 -151 -362 -26 -27 -40 -34
-71 -34 -74 0 -141 64 -163 155 -9 37 -11 108 -6 268 5 139 4 217 -2 217 -31
0 -110 -161 -142 -288 -27 -105 -51 -236 -51 -283 0 -51 -20 -65 -70 -50 -61
18 -91 74 -105 194 -4 31 -9 57 -11 57 -3 0 -15 -9 -27 -21 -12 -12 -41 -29
-64 -39 -32 -14 -46 -29 -61 -62 -31 -68 -81 -110 -140 -116 -74 -7 -146 21
-201 77 -40 41 -56 70 -86 156 -5 16 -18 -5 -61 -92 -64 -133 -80 -147 -159
-141 -93 8 -156 75 -190 203 -20 78 -20 392 0 575 8 74 18 167 21 205 l5 70
-25 -30 c-68 -78 -156 -420 -173 -667 -6 -90 -26 -142 -59 -155 -31 -12 -84
25 -106 73 -18 42 -20 71 -24 303 -3 244 -18 441 -33 441 -14 0 -49 -46 -74
-96 -67 -133 -101 -331 -118 -679 -8 -146 -16 -233 -23 -237 -22 -15 -74 -8
-106 15 -48 31 -67 70 -92 183 -19 87 -22 128 -22 334 0 170 4 259 15 322 9
48 14 90 11 92 -9 10 -201 -96 -247 -136 -68 -60 -105 -130 -105 -198 1 -115
58 -180 160 -180 61 0 91 -13 74 -30 -39 -39 -182 -10 -246 51 l-38 36 0
-1014 0 -1013 3305 0 3305 0 0 2030 0 2030 -3305 0 -3305 0 0 -883z m4654
-412 c45 -30 60 -64 59 -135 -4 -152 -76 -330 -192 -468 l-69 -83 -7 -92 c-4
-51 -5 -108 -3 -127 3 -32 6 -28 32 50 40 120 80 204 118 253 41 54 46 57 86
57 76 0 134 -57 152 -148 5 -26 6 -135 3 -243 -7 -216 -2 -237 43 -183 70 85
115 181 150 322 50 200 169 303 317 272 103 -21 142 -94 112 -208 -17 -62 -63
-136 -109 -174 -27 -22 -101 -48 -139 -48 -29 0 -30 0 -25 -49 6 -62 53 -159
83 -173 55 -25 164 74 233 214 41 80 43 88 52 221 15 206 33 233 139 207 83
-20 86 -26 71 -192 -17 -201 -11 -216 27 -65 37 146 71 230 102 247 38 20 97
-4 129 -52 25 -38 27 -51 32 -171 3 -90 9 -132 17 -134 7 -3 30 13 53 34 l40
38 10 115 c17 188 24 201 101 180 54 -15 82 -44 75 -78 -33 -154 -33 -518 0
-551 20 -20 160 219 203 349 20 62 51 82 51 33 0 -73 -125 -366 -178 -416 -41
-39 -89 -45 -146 -18 -58 28 -91 93 -108 207 l-12 81 -44 -19 c-98 -44 -220
29 -238 144 -7 43 -19 49 -28 16 -22 -79 -58 -248 -70 -332 -20 -135 -49 -162
-123 -116 -40 24 -52 46 -77 148 l-21 84 -55 -89 c-73 -118 -124 -153 -218
-153 -112 0 -189 53 -241 165 l-26 56 -39 -79 c-50 -105 -83 -137 -140 -136
-56 1 -113 30 -150 77 -29 37 -31 44 -31 125 0 48 4 161 9 252 l9 165 -26 -24
c-15 -13 -44 -60 -66 -105 -40 -82 -54 -123 -112 -339 -18 -65 -38 -125 -46
-133 -32 -32 -106 -5 -135 49 -6 12 -16 60 -22 107 l-12 85 -37 -56 c-47 -71
-133 -153 -183 -175 -99 -43 -243 -5 -328 86 -122 130 -155 309 -110 589 l7
44 -47 -6 c-89 -12 -176 -79 -191 -145 -9 -42 11 -110 41 -137 29 -26 30 -35
7 -35 -40 1 -91 65 -103 131 -23 127 89 238 244 241 l63 1 41 87 c65 138 153
227 272 277 64 26 102 28 158 9 86 -31 142 -101 142 -177 -1 -84 -81 -187
-188 -240 -58 -29 -80 -34 -162 -39 l-95 -5 -13 -50 c-19 -71 -27 -259 -13
-325 15 -72 50 -147 91 -193 38 -44 79 -49 147 -16 57 27 161 129 208 204 36
56 39 66 46 165 43 554 151 803 335 769 24 -5 55 -16 68 -24z m1663 -202 c19
-9 37 -22 40 -30 7 -19 -15 -131 -33 -165 -18 -34 -53 -37 -79 -8 -14 16 -20
42 -23 105 -2 46 -2 91 1 100 8 20 50 19 94 -2z"/>
<path d="M6273 3558 c-42 -67 -70 -161 -92 -310 -23 -148 -26 -208 -12 -208
15 0 109 148 131 208 45 119 61 256 39 321 -15 42 -34 39 -66 -11z"/>
<path d="M5747 3479 c-58 -31 -158 -136 -194 -205 -48 -90 -46 -98 22 -91 157
16 303 163 281 283 -6 30 -10 34 -39 34 -18 -1 -49 -10 -70 -21z"/>
<path d="M6997 3033 c-21 -20 -48 -59 -62 -87 -28 -58 -56 -187 -44 -200 29
-32 154 76 182 158 19 56 22 103 7 140 -13 36 -40 33 -83 -11z"/>
<path d="M3556 3037 c-39 -52 -66 -120 -75 -194 -14 -117 12 -263 58 -323 30
-39 69 -20 105 52 27 55 28 59 12 83 -31 47 -18 115 21 115 l26 0 -5 99 c-5
110 -26 159 -78 186 -38 19 -35 20 -64 -18z"/>
</g>
</svg>
