<?xml version="1.0" encoding="UTF-8"?>
<svg version="1.1" xmlns="http://www.w3.org/2000/svg" width="512" height="260">
<path d="M0 0 C168.96 0 337.92 0 512 0 C512 85.8 512 171.6 512 260 C343.04 260 174.08 260 0 260 C0 174.2 0 88.4 0 0 Z " fill="#FDFDFD" transform="translate(0,0)"/>
<path d="M0 0 C0.77472656 0.00451172 1.54945313 0.00902344 2.34765625 0.01367188 C4.23180524 0.02530242 6.11591365 0.04323094 8 0.0625 C7.15706034 1.1339288 6.29979332 2.19408468 5.4375 3.25 C4.72400391 4.13751953 4.72400391 4.13751953 3.99609375 5.04296875 C-2.67628758 11.79369506 -9.95564424 13.83038233 -18.86050415 16.25567627 C-22.69485496 17.30434432 -26.5133751 18.40748248 -30.33203125 19.51171875 C-31.08459702 19.72892578 -31.83716278 19.94613281 -32.61253357 20.16992188 C-59.93868803 27.85738281 -59.93868803 27.85738281 -80.6875 45.9375 C-81.08324219 46.57429688 -81.47898438 47.21109375 -81.88671875 47.8671875 C-86.27144239 56.51355482 -86.23939969 66.91003087 -84.34765625 76.30078125 C-81.04139211 86.33309348 -74.25659824 94.29442179 -65.23046875 99.73046875 C-42.41684948 111.1226355 -19.45421547 120.28144225 6.25 120.5 C7.37350861 120.51025711 7.37350861 120.51025711 8.51971436 120.52072144 C26.40333542 120.59994404 43.86264427 118.00774377 61.47079468 115.09048462 C86.95594995 110.89175658 108.67568742 115.71051891 131.65625 127.05859375 C134 129.0625 134 129.0625 134.984375 132.515625 C135.00024972 136.11918713 134.76627501 137.48384704 132.75 140.375 C132.31171875 141.03113281 131.8734375 141.68726563 131.421875 142.36328125 C130 144.0625 130 144.0625 127 146.0625 C122.35813095 145.84258065 119.57378237 143.53407937 115.9375 140.8125 C106.45505769 133.93701313 96.82861067 129.86226198 85.0625 129.875 C83.87756958 129.8762085 83.87756958 129.8762085 82.66870117 129.87744141 C73.98450814 129.96405407 65.40823388 130.86153955 56.77905273 131.77340698 C30.3739696 134.5202153 3.16873012 136.78080693 -23 131.0625 C-24.02867187 130.8456958 -24.02867187 130.8456958 -25.078125 130.62451172 C-29.77254162 129.613286 -34.39120107 128.40922696 -39 127.0625 C-39.71897461 126.85254395 -40.43794922 126.64258789 -41.17871094 126.42626953 C-52.41339559 123.07048628 -62.70382099 118.6469634 -73 113.0625 C-74.05832031 112.50820312 -75.11664063 111.95390625 -76.20703125 111.3828125 C-92.49558954 102.45932971 -103.55080735 91.13858529 -109 73.0625 C-109.19207031 72.44375 -109.38414063 71.825 -109.58203125 71.1875 C-111.42531718 61.81602763 -110.76005229 51.42130496 -106 43.0625 C-103.27042861 39.42128394 -100.25795204 36.23313674 -97 33.0625 C-96.10861328 32.14017578 -96.10861328 32.14017578 -95.19921875 31.19921875 C-72.65960636 9.45923784 -30.34265693 -0.34181503 0 0 Z " fill="#282725" transform="translate(219,71.9375)"/>
<path d="M0 0 C33.87627531 0.57863203 74.46402471 8.97313296 99 34 C107.36596155 43.46424824 112.98605549 53.98098805 112.41796875 66.83203125 C110.47336612 81.57102879 101.16776834 92.33766347 90.01171875 101.4375 C82.57787669 107.13718861 74.65622509 111.43819966 66.19213867 115.42553711 C61.07726074 117.8511864 56.55536082 120.55298335 52.01879883 123.95214844 C50 125 50 125 47.92944336 124.73950195 C45.18059978 123.6859467 42.46060525 122.58656092 39.75 121.4375 C38.67234375 120.98246094 37.5946875 120.52742188 36.484375 120.05859375 C35.66453125 119.70925781 34.8446875 119.35992187 34 119 C37.29787678 116.36493179 40.80110704 114.39939412 44.5 112.375 C54.53181664 106.73218468 63.28582188 99.7197475 72 92.25 C72.63542725 91.70706299 73.27085449 91.16412598 73.92553711 90.60473633 C80.36034959 85.00000002 84.96695738 79.55919832 86.32421875 70.94140625 C86.96671497 58.86690839 81.33001603 48.19434295 73.6875 39.3125 C59.33767176 26.96497337 39.94345018 20.43032519 21.79296875 15.91796875 C14.12695138 13.9994234 10.0457404 12.04643194 5 6 C4.030625 5.236875 3.06125 4.47375 2.0625 3.6875 C1.381875 3.130625 0.70125 2.57375 0 2 C0 1.34 0 0.68 0 0 Z " fill="#282725" transform="translate(305,72)"/>
<path d="M0 0 C4.99085471 5.89828283 5.44833544 12.15863422 5.3125 19.62109375 C4.07900402 32.95826901 -4.23090768 43.45745546 -14 52 C-22.31809166 58.7849532 -31.10241475 63.85340862 -40.80786133 68.42553711 C-45.92273926 70.8511864 -50.44463918 73.55298335 -54.98120117 76.95214844 C-57 78 -57 78 -59.07055664 77.73950195 C-61.81940022 76.6859467 -64.53939475 75.58656092 -67.25 74.4375 C-68.32765625 73.98246094 -69.4053125 73.52742188 -70.515625 73.05859375 C-71.74539063 72.53458984 -71.74539063 72.53458984 -73 72 C-69.70212322 69.36493179 -66.19889296 67.39939412 -62.5 65.375 C-52.46818336 59.73218468 -43.71417812 52.7197475 -35 45.25 C-34.36457275 44.70706299 -33.72914551 44.16412598 -33.07446289 43.60473633 C-26.71428492 38.06500685 -21.7769322 32.51427769 -20.74609375 23.87109375 C-20.58294876 17.79122393 -21.75880533 11.92892097 -23 6 C-22.34 6 -21.68 6 -21 6 C-20.34 4.68 -19.68 3.36 -19 2 C-18.71125 3.11375 -18.4225 4.2275 -18.125 5.375 C-17.30758671 9.00291092 -17.30758671 9.00291092 -15 11 C-11.96080104 11.49596036 -9.04473832 11.44297298 -6 11 C-2.7941434 8.32845283 -1.54374824 3.8226147 0 0 Z " fill="#272625" transform="translate(412,119)"/>
<path d="M0 0 C3.94489442 3.30270231 5.46819633 4.6600484 6.1875 9.875 C5.91109203 16.04811128 3.21479647 21.72809222 -1.14453125 26.078125 C-5.37908303 29.38558556 -11.83021621 34.25 -17.3125 34.25 C-17.3125 34.91 -17.3125 35.57 -17.3125 36.25 C-16.35150391 36.25386719 -16.35150391 36.25386719 -15.37109375 36.2578125 C-9.57395187 36.51699917 -5.79632525 37.35286786 -1.60546875 41.50390625 C0.59394515 44.47411173 0.95259977 46.60487814 0.6875 50.25 C-2.32934568 54.36388047 -5.3313136 56.25376272 -10.3125 57.25 C-16.3762548 56.94426446 -19.72113404 55.06641777 -24.375 51.5 C-24.96087891 51.06945312 -25.54675781 50.63890625 -26.15039062 50.1953125 C-29.98873124 47.34957273 -33.66572359 44.33616086 -37.3125 41.25 C-30.05241912 9.28942047 -30.05241912 9.28942047 -16.3125 0.25 C-10.79462176 -2.73263689 -5.45126013 -2.87991101 0 0 Z " fill="#292826" transform="translate(310.3125,38.75)"/>
<path d="M0 0 C9.86436473 4.26093861 14.78613561 13.12485495 18.59765625 22.6953125 C23.91796875 37.69607526 23.91796875 37.69607526 23.91796875 42.41796875 C22.52856445 43.69897461 22.52856445 43.69897461 20.59375 45.1328125 C19.89443359 45.65423828 19.19511719 46.17566406 18.47460938 46.71289062 C17.36375977 47.5259668 17.36375977 47.5259668 16.23046875 48.35546875 C15.14862305 49.16274414 15.14862305 49.16274414 14.04492188 49.98632812 C3.21758703 58.0054775 3.21758703 58.0054775 -3.86328125 57.78125 C-8.21873113 57.06812176 -11.05659053 54.44340947 -14.08203125 51.41796875 C-14.58577325 47.63990371 -14.39703404 45.91297313 -12.33203125 42.66796875 C-7.94830197 38.28423947 -4.07995265 38.01776089 1.91796875 37.41796875 C1.91796875 36.75796875 1.91796875 36.09796875 1.91796875 35.41796875 C0.10039296 34.31369446 -1.76354658 33.28539011 -3.64453125 32.29296875 C-10.242414 28.55390887 -14.73988739 24.49126242 -18.51953125 17.91796875 C-19.73386334 12.52093723 -19.85749619 8.91350828 -17.33203125 4.04296875 C-12.66355938 -1.40358176 -6.72248182 -1.8792679 0 0 Z " fill="#282725" transform="translate(235.08203125,37.58203125)"/>
<path d="M0 0 C4.91789614 4.3006703 8.42808433 9.01465079 9.37109375 15.5859375 C9.70840823 29.75314568 3.73424094 42.39863859 -4 54 C-4.66 54 -5.32 54 -6 54 C-21.27516506 24.47306803 -21.27516506 24.47306803 -19 12 C-15.57044557 3.98209972 -9.26820415 -3.25200145 0 0 Z " fill="#282725" transform="translate(270,21)"/>
<path d="M0 0 C3.63 0 7.26 0 11 0 C11.4640625 1.03769531 11.928125 2.07539062 12.40625 3.14453125 C20.17367885 20.47409921 28.09660796 37.73208463 36 55 C36 38.17 36 21.34 36 4 C33.525 3.505 33.525 3.505 31 3 C31 2.01 31 1.02 31 0 C35.62 0 40.24 0 45 0 C45 0.66 45 1.32 45 2 C43.35 2.33 41.7 2.66 40 3 C40 23.79 40 44.58 40 66 C38.68 66 37.36 66 36 66 C26.97443114 46.67846086 17.97461309 27.3452771 9 8 C9 25.49 9 42.98 9 61 C10.65 61.33 12.3 61.66 14 62 C14 62.99 14 63.98 14 65 C9.38 65 4.76 65 0 65 C0 64.01 0 63.02 0 62 C1.65 62 3.3 62 5 62 C5 42.86 5 23.72 5 4 C2.525 3.01 2.525 3.01 0 2 C0 1.34 0 0.68 0 0 Z " fill="#1C1C1B" transform="translate(244,106)"/>
<path d="M0 0 C8.25 0 16.5 0 25 0 C25.66 3.3 26.32 6.6 27 10 C26.34 10 25.68 10 25 10 C24.34 7.69 23.68 5.38 23 3 C18.38 3 13.76 3 9 3 C8.67 9.6 8.34 16.2 8 23 C11.96 23 15.92 23 20 23 C20 20.69 20 18.38 20 16 C20.66 16 21.32 16 22 16 C22 21.61 22 27.22 22 33 C21.34 33 20.68 33 20 33 C19.67 30.69 19.34 28.38 19 26 C15.37 25.67 11.74 25.34 8 25 C8.33 32.59 8.66 40.18 9 48 C13.95 48 18.9 48 24 48 C24.99 45.69 25.98 43.38 27 41 C27.33 41 27.66 41 28 41 C27.67 44.3 27.34 47.6 27 51 C18.09 51 9.18 51 0 51 C1.32 50.01 2.64 49.02 4 48 C4.60174592 45.91868798 4.60174592 45.91868798 4.51757812 43.57617188 C4.53018677 42.68514771 4.54279541 41.79412354 4.55578613 40.87609863 C4.54768921 39.91667358 4.53959229 38.95724854 4.53125 37.96875 C4.5350769 36.98128784 4.53890381 35.99382568 4.54284668 34.97644043 C4.545569 32.88841737 4.53818547 30.80036039 4.52148438 28.71240234 C4.50007974 25.51192365 4.52127567 22.31368992 4.546875 19.11328125 C4.54423178 17.08593253 4.53910693 15.05858522 4.53125 13.03125 C4.54339539 11.59211243 4.54339539 11.59211243 4.55578613 10.12390137 C4.54317749 9.2328772 4.53056885 8.34185303 4.51757812 7.42382812 C4.51280457 6.24826355 4.51280457 6.24826355 4.50793457 5.0489502 C4.08094878 2.40224682 4.08094878 2.40224682 0 0 Z " fill="#090909" transform="translate(195,115)"/>
<path d="M0 0 C1.98 0 3.96 0 6 0 C11.35313009 11.19138759 16.25078869 22.5402148 21 34 C21.049377 29.47934572 21.08570823 24.95884783 21.10986328 20.43798828 C21.11993118 18.89954902 21.13358646 17.36112893 21.15087891 15.82275391 C21.17509317 13.61355867 21.18647491 11.40461605 21.1953125 9.1953125 C21.20563507 8.50567413 21.21595764 7.81603577 21.22659302 7.10549927 C21.22699478 5.40199094 21.12191026 3.69914057 21 2 C20.34 1.34 19.68 0.68 19 0 C21.64 0 24.28 0 27 0 C26.34 0.66 25.68 1.32 25 2 C24.75393985 5.00886724 24.62619218 7.93217752 24.5859375 10.9453125 C24.56657135 11.8303244 24.5472052 12.7153363 24.5272522 13.62716675 C24.46737277 16.45967916 24.42103787 19.29223203 24.375 22.125 C24.33682789 24.04298668 24.29777662 25.96095607 24.2578125 27.87890625 C24.16166445 32.58579748 24.07766458 37.29276896 24 42 C21 41 21 41 19.2824707 37.76538086 C18.65256383 36.33667238 18.03443282 34.9027359 17.42578125 33.46484375 C17.09708542 32.71159317 16.76838959 31.95834259 16.42973328 31.18226624 C15.38053988 28.7715866 14.34641548 26.3547661 13.3125 23.9375 C12.60449746 22.30361066 11.8955251 20.67014119 11.18554688 19.03710938 C9.4438549 15.0301993 7.72267553 11.01533842 6 7 C5.67 17.89 5.34 28.78 5 40 C5.99 40.33 6.98 40.66 8 41 C5.36 41 2.72 41 0 41 C1.485 40.505 1.485 40.505 3 40 C2.9065993 34.62452409 2.8005365 29.24950579 2.68261719 23.87451172 C2.64428223 22.04515471 2.60943737 20.21572115 2.578125 18.38623047 C2.53257195 15.75981241 2.47456269 13.13392341 2.4140625 10.5078125 C2.40251129 9.68693146 2.39096008 8.86605042 2.37905884 8.02029419 C2.4427456 3.5375356 2.4427456 3.5375356 0 0 Z " fill="#2F2F2F" transform="translate(147,121)"/>
<path d="M0 0 C4.95 0 9.9 0 15 0 C13.02 0.99 13.02 0.99 11 2 C11 16.85 11 31.7 11 47 C12.32 47.33 13.64 47.66 15 48 C15 48.66 15 49.32 15 50 C10.05 50 5.1 50 0 50 C0 49.34 0 48.68 0 48 C2.475 47.505 2.475 47.505 5 47 C5 32.48 5 17.96 5 3 C2.525 2.01 2.525 2.01 0 1 C0 0.67 0 0.34 0 0 Z " fill="#232221" transform="translate(315,116)"/>
<path d="M0 0 C4.62 0 9.24 0 14 0 C14 0.66 14 1.32 14 2 C12.35 2.33 10.7 2.66 9 3 C9 23.79 9 44.58 9 66 C7.68 66 6.36 66 5 66 C5 65.34 5 64.68 5 64 C5.66 64 6.32 64 7 64 C6.76228882 62.39608398 6.76228882 62.39608398 6.51977539 60.75976562 C5.81973634 55.13231217 5.76995801 49.50824657 5.68359375 43.84375 C5.6524221 42.12943787 5.6524221 42.12943787 5.62062073 40.38049316 C5.55558659 36.75371933 5.49645601 33.12687722 5.4375 29.5 C5.39427085 27.03124313 5.3506552 24.56249299 5.30664062 22.09375 C5.19995288 16.06257077 5.09810344 10.03132464 5 4 C3.35 3.67 1.7 3.34 0 3 C0 2.01 0 1.02 0 0 Z " fill="#343431" transform="translate(275,106)"/>
<path d="M0 0 C2.4375 1.5 2.4375 1.5 4 4 C4.5149217 6.90813732 4.33536988 8.98167108 4 12 C2.42392426 14.1621789 1.50378979 14.88866524 -1.12109375 15.46875 C-5.23629217 15.52426701 -7.30186066 15.54853806 -10.625 12.9375 C-12.42593997 9.09003735 -12.19823746 7.04405144 -11 3 C-7.92160879 -0.67038952 -4.56677188 -0.57084649 0 0 Z " fill="#CCCBCB" transform="translate(405,116)"/>
<path d="M0 0 C0.99 0.66 1.98 1.32 3 2 C3.6875 5.625 3.6875 5.625 4 9 C3.34 9 2.68 9 2 9 C1.67 7.02 1.34 5.04 1 3 C-0.45792884 2.94600264 -1.91642712 2.90720823 -3.375 2.875 C-4.59316406 2.84019531 -4.59316406 2.84019531 -5.8359375 2.8046875 C-8.21342243 2.78629949 -8.21342243 2.78629949 -10 5 C-10.83647486 8.28513122 -10.83647486 8.28513122 -10 12 C-7.64055755 14.74220914 -4.89717576 16.84996233 -2 19 C3.8955102 23.48571429 3.8955102 23.48571429 5 27 C5.45208548 31.97294029 5.15736025 35.05329969 2 39 C-1.42402762 41.56802071 -4.84667386 41.22249961 -9 41 C-10.32 40.67 -11.64 40.34 -13 40 C-13.33 37.03 -13.66 34.06 -14 31 C-12.25372522 33.61941217 -11.61277612 35.03824877 -11 38 C-9.37536158 38.05395478 -7.75021459 38.09277195 -6.125 38.125 C-4.76761719 38.15980469 -4.76761719 38.15980469 -3.3828125 38.1953125 C-0.81193006 38.24324836 -0.81193006 38.24324836 1 36 C1.57064098 32.94256571 1.50716983 30.06437348 1 27 C-2.00955772 22.95590681 -6.24140643 20.24343414 -10.328125 17.33203125 C-12.39113091 15.68837467 -12.91568001 14.6131268 -13.2734375 12.01171875 C-13.45961849 7.75103836 -13.38940864 5.59628198 -11 1.9375 C-6.89592369 -0.71304929 -4.82698169 -0.5449818 0 0 Z " fill="#212121" transform="translate(375,121)"/>
<path d="M0 0 C0.66 0.33 1.32 0.66 2 1 C2.33 19.15 2.66 37.3 3 56 C4.65 56.33 6.3 56.66 8 57 C8 57.99 8 58.98 8 60 C3.38 60 -1.24 60 -6 60 C-6 59.01 -6 58.02 -6 57 C-4.35 57 -2.7 57 -1 57 C-0.67 38.19 -0.34 19.38 0 0 Z " fill="#000000" transform="translate(250,111)"/>
<path d="M0 0 C2.64 0 5.28 0 8 0 C7.34 0.66 6.68 1.32 6 2 C5.75393985 5.00886724 5.62619218 7.93217752 5.5859375 10.9453125 C5.56657135 11.8303244 5.5472052 12.7153363 5.5272522 13.62716675 C5.46737277 16.45967916 5.42103787 19.29223203 5.375 22.125 C5.33682789 24.04298668 5.29777662 25.96095607 5.2578125 27.87890625 C5.16166445 32.58579748 5.07766458 37.29276896 5 42 C4.01 41.67 3.02 41.34 2 41 C1.505 39.515 1.505 39.515 1 38 C1.33 37.34 1.66 36.68 2 36 C2.11082136 33.46992034 2.16409561 30.96818388 2.16796875 28.4375 C2.17129715 27.69040771 2.17462555 26.94331543 2.17805481 26.17358398 C2.18311966 24.59326799 2.18546327 23.01294129 2.18530273 21.43261719 C2.18749134 19.00958757 2.20565701 16.58701164 2.22460938 14.1640625 C2.22754292 12.6302099 2.22952798 11.09635512 2.23046875 9.5625 C2.23765427 8.83538818 2.24483978 8.10827637 2.25224304 7.35913086 C2.36469842 3.22526969 2.36469842 3.22526969 0 0 Z " fill="#474747" transform="translate(166,121)"/>
<path d="M0 0 C0.66 0.66 1.32 1.32 2 2 C1.01 2.495 1.01 2.495 0 3 C0.33 3.99 0.66 4.98 1 6 C0.01 7.485 0.01 7.485 -1 9 C-1.33 8.67 -1.66 8.34 -2 8 C-2.66 9.32 -3.32 10.64 -4 12 C-5.65 11.67 -7.3 11.34 -9 11 C-10.31720856 4.77319588 -10.31720856 4.77319588 -9 1.5625 C-6.00607014 -0.7765077 -3.68005464 -0.40146051 0 0 Z " fill="#A1A1A0" transform="translate(403,117)"/>
<path d="M0 0 C3.63 0 7.26 0 11 0 C12.32 3.3 13.64 6.6 15 10 C14.34 10 13.68 10 13 10 C13 9.34 13 8.68 13 8 C11.68 8 10.36 8 9 8 C9 7.34 9 6.68 9 6 C6.06279492 4.47700477 3.0831351 3.19899698 0 2 C0 1.34 0 0.68 0 0 Z " fill="#262624" transform="translate(244,106)"/>
<path d="M0 0 C2.625 0.375 2.625 0.375 5 1 C5.625 3.3125 5.625 3.3125 6 6 C5.01 7.485 5.01 7.485 4 9 C1.4375 9.25 1.4375 9.25 -1 9 C-2 8 -2 8 -2.1875 5.0625 C-2 2 -2 2 0 0 Z " fill="#6F6F6F" transform="translate(221,214)"/>
<path d="M0 0 C3.53571429 0.53571429 3.53571429 0.53571429 5 2 C5.125 5 5.125 5 5 8 C4 9 4 9 1.5625 9.1875 C-1 9 -1 9 -3 7 C-2.67028521 3.70285207 -2.3773161 2.3773161 0 0 Z " fill="#B0B0B0" transform="translate(156,199)"/>
<path d="M0 0 C0.33 0 0.66 0 1 0 C0.91253716 1.43861294 0.80434652 2.87597508 0.6875 4.3125 C0.62949219 5.11300781 0.57148438 5.91351563 0.51171875 6.73828125 C-0.09499565 9.41986625 -0.84362154 10.3353373 -3 12 C-7.85874101 13.61958034 -12.07371134 13.23157217 -17 12 C-17.33 9.03 -17.66 6.06 -18 3 C-16.25372522 5.61941217 -15.61277612 7.03824877 -15 10 C-11.62141116 10.28524671 -8.36955222 10.43548332 -5 10 C-2.82979708 7.91078244 -2.82979708 7.91078244 -2 5 C-1.608125 4.071875 -1.21625 3.14375 -0.8125 2.1875 C-0.544375 1.465625 -0.27625 0.74375 0 0 Z " fill="#181818" transform="translate(379,149)"/>
<path d="M0 0 C1 1 1 1 1.0625 4.0625 C1.041875 5.031875 1.02125 6.00125 1 7 C-0.98 7.33 -2.96 7.66 -5 8 C-7 5 -7 5 -6.75 2.375 C-6.5025 1.59125 -6.255 0.8075 -6 0 C-3.49749232 -1.25125384 -2.59701335 -0.83774624 0 0 Z " fill="#ADADAD" transform="translate(320,211)"/>
<path d="M0 0 C0.33 0 0.66 0 1 0 C0.67 3.3 0.34 6.6 0 10 C-8.91 10 -17.82 10 -27 10 C-27 9.67 -27 9.34 -27 9 C-15.12 8.01 -15.12 8.01 -3 7 C-2.01 4.69 -1.02 2.38 0 0 Z " fill="#010101" transform="translate(222,156)"/>
<path d="M0 0 C0.99 0.66 1.98 1.32 3 2 C3.6875 5.625 3.6875 5.625 4 9 C3.34 9 2.68 9 2 9 C1.67 7.02 1.34 5.04 1 3 C-0.45792884 2.94600264 -1.91642712 2.90720823 -3.375 2.875 C-4.59316406 2.84019531 -4.59316406 2.84019531 -5.8359375 2.8046875 C-8.21342243 2.78629949 -8.21342243 2.78629949 -10 5 C-10.165 6.175625 -10.33 7.35125 -10.5 8.5625 C-10.665 9.696875 -10.83 10.83125 -11 12 C-11.99 12.495 -11.99 12.495 -13 13 C-13.60150376 5.90225564 -13.60150376 5.90225564 -11 2 C-6.8976444 -0.73490373 -4.86581934 -0.5493667 0 0 Z " fill="#060606" transform="translate(375,121)"/>
<path d="M0 0 C8.25 0 16.5 0 25 0 C25.66 3.3 26.32 6.6 27 10 C26.34 10 25.68 10 25 10 C24.34 7.69 23.68 5.38 23 3 C15.41 2.34 7.82 1.68 0 1 C0 0.67 0 0.34 0 0 Z " fill="#040404" transform="translate(195,115)"/>
<path d="M0 0 C4.455 0.99 4.455 0.99 9 2 C9 2.99 9 3.98 9 5 C4.38 5 -0.24 5 -5 5 C-5 4.01 -5 3.02 -5 2 C-3.35 2 -1.7 2 0 2 C0 1.34 0 0.68 0 0 Z " fill="#414140" transform="translate(249,166)"/>
<path d="M0 0 C4.62 0 9.24 0 14 0 C14 0.66 14 1.32 14 2 C12.35 2.33 10.7 2.66 9 3 C9 3.99 9 4.98 9 6 C8.34 6 7.68 6 7 6 C7 5.34 7 4.68 7 4 C4.69 3.67 2.38 3.34 0 3 C0 2.01 0 1.02 0 0 Z " fill="#373736" transform="translate(275,106)"/>
<path d="M0 0 C1.98 0.66 3.96 1.32 6 2 C5.67 3.65 5.34 5.3 5 7 C4.34 6.67 3.68 6.34 3 6 C2.67 6.66 2.34 7.32 2 8 C1.01 8 0.02 8 -1 8 C-1.625 5.6875 -1.625 5.6875 -2 3 C-1.34 2.01 -0.68 1.02 0 0 Z " fill="#ADADAD" transform="translate(398,119)"/>
<path d="M0 0 C0.33 0 0.66 0 1 0 C1 7.92 1 15.84 1 24 C1.66 24 2.32 24 3 24 C3 24.66 3 25.32 3 26 C1.02 26 -0.96 26 -3 26 C-2.67 25.34 -2.34 24.68 -2 24 C-1.34 24 -0.68 24 0 24 C0 16.08 0 8.16 0 0 Z " fill="#2A2A2A" transform="translate(201,139)"/>
<path d="M0 0 C1.32 0 2.64 0 4 0 C5.625 2.75 5.625 2.75 7 6 C6.1875 8.375 6.1875 8.375 5 10 C2.35534962 6.8745041 1.15585285 3.91211733 0 0 Z " fill="#151514" transform="translate(261,129)"/>
<path d="M0 0 C4.95 0 9.9 0 15 0 C13.02 0.99 13.02 0.99 11 2 C10.01 3.485 10.01 3.485 9 5 C8.34 5 7.68 5 7 5 C7 4.34 7 3.68 7 3 C4.69 2.34 2.38 1.68 0 1 C0 0.67 0 0.34 0 0 Z " fill="#131313" transform="translate(315,116)"/>
<path d="M0 0 C6.4 -0.49230769 6.4 -0.49230769 9.4375 2 C10.2109375 2.99 10.2109375 2.99 11 4 C10.34 6.31 9.68 8.62 9 11 C7.55802132 8.11604263 7.41166419 5.17569521 7 2 C4.69 2 2.38 2 0 2 C0 1.34 0 0.68 0 0 Z " fill="#C0C0C0" transform="translate(398,116)"/>
<path d="M0 0 C1.98 0 3.96 0 6 0 C6 1.65 6 3.3 6 5 C4.35 5 2.7 5 1 5 C0.67 5.99 0.34 6.98 0 8 C0 5.36 0 2.72 0 0 Z " fill="#787878" transform="translate(261,213)"/>
<path d="M0 0 C1.98 0 3.96 0 6 0 C6 0.66 6 1.32 6 2 C5.34 2 4.68 2 4 2 C4 7.94 4 13.88 4 20 C3.67 20 3.34 20 3 20 C3 14.06 3 8.12 3 2 C2.01 1.67 1.02 1.34 0 1 C0 0.67 0 0.34 0 0 Z " fill="#2B2B2B" transform="translate(198,116)"/>
<path d="M0 0 C1.32 0 2.64 0 4 0 C4 1.65 4 3.3 4 5 C2.68 5.33 1.36 5.66 0 6 C-0.38218767 4.34385343 -0.71395102 2.67542976 -1 1 C-0.67 0.67 -0.34 0.34 0 0 Z " fill="#FCFCFC" transform="translate(221,216)"/>
<path d="M0 0 C2.875 -0.1875 2.875 -0.1875 6 0 C8 3 8 3 7.75 5.625 C7.5025 6.40875 7.255 7.1925 7 8 C6.01 8.495 6.01 8.495 5 9 C4.87625 7.329375 4.87625 7.329375 4.75 5.625 C4.42126213 1.94246056 4.42126213 1.94246056 1.9375 0.5625 C1.298125 0.376875 0.65875 0.19125 0 0 Z " fill="#F1F1F1" transform="translate(399,119)"/>
<path d="M0 0 C0.66 0 1.32 0 2 0 C2 2.31 2 4.62 2 7 C3.32 7 4.64 7 6 7 C6 7.66 6 8.32 6 9 C4.02 9 2.04 9 0 9 C0 6.03 0 3.06 0 0 Z " fill="#A0A0A0" transform="translate(234,215)"/>
<path d="M0 0 C1.258125 -0.04125 2.51625 -0.0825 3.8125 -0.125 C4.52019531 -0.14820312 5.22789062 -0.17140625 5.95703125 -0.1953125 C8 0 8 0 11 2 C11.6875 5.625 11.6875 5.625 12 9 C11.34 9 10.68 9 10 9 C9.67 7.02 9.34 5.04 9 3 C4.545 2.01 4.545 2.01 0 1 C0 0.67 0 0.34 0 0 Z " fill="#2F2F2F" transform="translate(367,121)"/>
<path d="M0 0 C0 2.64 0 5.28 0 8 C-0.99 8 -1.98 8 -3 8 C-3.33 6.02 -3.66 4.04 -4 2 C-1 0 -1 0 0 0 Z " fill="#2A2929" transform="translate(282,162)"/>
<path d="M0 0 C0.66 0 1.32 0 2 0 C3.0625 2.375 3.0625 2.375 4 5 C3.67 5.66 3.34 6.32 3 7 C2.01 7 1.02 7 0 7 C-0.66 5.35 -1.32 3.7 -2 2 C-1.34 1.34 -0.68 0.68 0 0 Z " fill="#2B2B29" transform="translate(267,137)"/>
<path d="M0 0 C3.63 0 7.26 0 11 0 C10.67 0.99 10.34 1.98 10 3 C3.375 3.125 3.375 3.125 0 2 C0 1.34 0 0.68 0 0 Z " fill="#313130" transform="translate(244,106)"/>
<path d="M0 0 C2 1 2 1 3.1875 3.9375 C4 7 4 7 3 9 C2.34 9 1.68 9 1 9 C1 7.02 1 5.04 1 3 C0.34 3 -0.32 3 -1 3 C-1.33 3.66 -1.66 4.32 -2 5 C-1.125 1.125 -1.125 1.125 0 0 Z " fill="#666666" transform="translate(331,216)"/>
<path d="M0 0 C0.33 0 0.66 0 1 0 C0.64989059 8.35010941 0.64989059 8.35010941 -2.0625 11.0625 C-2.701875 11.371875 -3.34125 11.68125 -4 12 C-3.33989524 9.15449988 -2.48275034 6.47674001 -1.4375 3.75 C-1.16808594 3.04359375 -0.89867187 2.3371875 -0.62109375 1.609375 C-0.41613281 1.07828125 -0.21117187 0.5471875 0 0 Z " fill="#111110" transform="translate(379,149)"/>
<path d="M0 0 C0.33 0 0.66 0 1 0 C1.66 2.64 2.32 5.28 3 8 C1.35 8.33 -0.3 8.66 -2 9 C-2.33 7.35 -2.66 5.7 -3 4 C-2.34 4 -1.68 4 -1 4 C-0.67 2.68 -0.34 1.36 0 0 Z " fill="#181716" transform="translate(392,121)"/>
<path d="M0 0 C1.9375 0.8125 1.9375 0.8125 4 2 C4.33 2.99 4.66 3.98 5 5 C4.01 5.33 3.02 5.66 2 6 C1.01 4.35 0.02 2.7 -1 1 C-0.67 0.67 -0.34 0.34 0 0 Z " fill="#313131" transform="translate(363,133)"/>
<path d="M0 0 C1.98 0.495 1.98 0.495 4 1 C3.67 2.32 3.34 3.64 3 5 C1.68 4.34 0.36 3.68 -1 3 C-0.67 2.01 -0.34 1.02 0 0 Z " fill="#292929" transform="translate(321,107)"/>
<path d="M0 0 C0.33 0 0.66 0 1 0 C0.67 3.3 0.34 6.6 0 10 C-0.99 9.67 -1.98 9.34 -3 9 C-2.01 6.03 -1.02 3.06 0 0 Z " fill="#101010" transform="translate(222,156)"/>
</svg>
