<?xml version="1.0" standalone="no"?>
<!DOCTYPE svg PUBLIC "-//W3C//DTD SVG 20010904//EN"
 "http://www.w3.org/TR/2001/REC-SVG-20010904/DTD/svg10.dtd">
<svg version="1.0" xmlns="http://www.w3.org/2000/svg"
 width="316.000000pt" height="179.000000pt" viewBox="0 0 316.000000 179.000000"
 preserveAspectRatio="xMidYMid meet">

<g transform="translate(0.000000,179.000000) scale(0.100000,-0.100000)"
fill="#000000" stroke="none">
<path d="M1450 1661 c-51 -16 -108 -51 -138 -86 -51 -57 -89 -145 -64 -145 4
0 14 20 21 45 17 57 88 138 139 158 105 42 209 27 273 -40 59 -62 72 -96 77
-206 4 -89 2 -101 -22 -150 -60 -123 -216 -129 -241 -9 -5 27 -4 32 12 33 10
0 13 3 6 6 -14 5 -18 93 -5 93 12 0 37 -30 56 -67 10 -20 24 -33 36 -33 16 0
14 6 -16 51 -34 51 -34 52 -14 66 37 26 21 133 -28 176 -27 25 -91 32 -137 17
-76 -25 -134 -99 -156 -199 -26 -121 73 -288 191 -321 96 -27 212 -2 284 61
46 41 96 122 96 156 0 25 -14 5 -34 -48 -45 -123 -198 -197 -323 -155 -57 19
-105 62 -136 120 -29 57 -36 209 -13 271 21 53 73 102 120 111 44 8 106 -20
123 -56 l12 -25 -62 -6 c-34 -3 -56 -6 -49 -7 9 -2 12 -33 12 -117 0 -161 24
-211 109 -222 137 -18 264 146 232 298 -7 29 -23 72 -36 95 -33 56 -104 118
-153 132 -43 13 -133 14 -172 3z m112 -216 c9 -19 8 -29 -6 -50 -9 -14 -25
-25 -36 -25 -17 0 -20 7 -20 50 0 47 2 50 25 50 17 0 29 -8 37 -25z"/>
<path d="M30 762 c0 -4 10 -12 23 -17 22 -10 22 -14 25 -203 l2 -192 -25 -10
c-42 -16 -19 -30 50 -30 63 0 97 16 56 27 -19 5 -21 12 -21 94 l0 89 26 0 c33
0 77 -45 135 -139 42 -68 45 -71 81 -71 42 0 49 13 17 30 -11 6 -36 37 -56 68
-20 31 -49 72 -65 91 l-29 33 30 19 c42 25 54 53 48 112 -3 41 -11 56 -36 79
-30 27 -34 28 -146 28 -63 0 -115 -3 -115 -8z m211 -41 c20 -16 24 -29 24 -70
0 -61 -30 -98 -88 -108 l-37 -6 0 102 0 101 39 0 c23 0 48 -8 62 -19z"/>
<path d="M613 745 c-199 -99 -161 -393 57 -445 115 -27 240 35 284 142 33 77
11 194 -47 256 -68 74 -199 94 -294 47z m187 -10 c121 -63 149 -256 52 -358
-39 -41 -74 -57 -127 -57 -107 0 -185 91 -185 218 0 157 137 260 260 197z"/>
<path d="M1060 761 c0 -5 10 -11 23 -13 21 -3 22 -6 20 -103 -1 -55 -5 -146
-9 -202 -5 -89 -8 -103 -25 -108 -36 -12 -19 -25 31 -25 28 0 50 2 50 5 0 3
-6 16 -14 28 -11 18 -13 51 -8 172 l7 150 74 -165 c41 -91 77 -169 81 -173 4
-4 40 72 81 170 l74 178 6 -65 c4 -36 7 -111 8 -168 1 -83 -2 -104 -14 -108
-33 -13 -12 -24 45 -24 62 0 71 5 45 24 -13 9 -17 48 -22 207 -6 195 -6 197
15 204 39 12 23 25 -30 25 l-53 0 -69 -175 c-38 -96 -71 -173 -73 -171 -2 2
-34 79 -71 172 l-68 169 -52 3 c-29 2 -52 -1 -52 -7z"/>
<path d="M1620 760 c0 -5 7 -10 15 -10 27 0 35 -48 35 -220 0 -173 -3 -189
-42 -203 -9 -3 -10 -8 -2 -16 7 -8 53 -11 144 -9 l134 3 7 29 c11 39 6 43 -20
17 -17 -17 -33 -21 -90 -21 -82 0 -81 -1 -81 111 l0 79 62 0 c43 0 67 -5 80
-17 17 -15 18 -14 18 38 -1 47 -2 52 -14 37 -10 -14 -28 -18 -80 -18 l-66 0 0
79 c0 112 -1 111 81 111 57 0 73 -4 90 -21 26 -26 33 -20 20 15 l-11 26 -140
0 c-87 0 -140 -4 -140 -10z"/>
<path d="M3060 650 c24 -8 24 -8 3 -9 -19 -1 -23 -7 -22 -33 0 -26 2 -29 8
-13 8 19 8 19 20 0 12 -20 12 -20 7 0 -3 11 -2 26 3 34 7 11 11 10 20 -5 6
-11 11 -14 11 -8 0 17 -35 44 -56 43 -15 -1 -14 -3 6 -9z"/>
<path d="M3001 604 c0 -11 3 -14 6 -6 3 7 2 16 -1 19 -3 4 -6 -2 -5 -13z"/>
<path d="M3091 577 c-13 -21 -12 -21 5 -5 10 10 16 20 13 22 -3 3 -11 -5 -18
-17z"/>
<path d="M3048 553 c7 -3 16 -2 19 1 4 3 -2 6 -13 5 -11 0 -14 -3 -6 -6z"/>
<path d="M2130 521 c0 -6 7 -11 15 -11 12 0 15 -18 15 -104 0 -91 -2 -105 -17
-109 -10 -3 9 -5 42 -5 33 0 52 2 43 5 -14 3 -18 15 -18 53 0 42 2 48 18 43
11 -2 35 2 55 11 32 13 37 19 37 49 0 53 -28 71 -116 75 -50 3 -74 1 -74 -7z
m118 -27 c37 -26 24 -84 -20 -84 -15 0 -18 9 -18 50 0 54 4 58 38 34z"/>
<path d="M2340 521 c0 -5 7 -11 15 -15 12 -4 15 -26 15 -105 0 -86 -2 -100
-17 -104 -10 -3 28 -5 83 -6 97 -1 102 0 108 22 10 36 7 43 -9 20 -17 -25 -77
-38 -105 -23 -18 10 -20 21 -20 101 0 82 2 91 20 96 39 10 19 23 -35 23 -30 0
-55 -4 -55 -9z"/>
<path d="M2560 521 c0 -5 7 -11 15 -15 11 -4 15 -22 15 -71 0 -116 42 -166
125 -151 63 12 75 34 75 131 0 67 3 87 15 91 28 11 15 24 -25 24 -22 0 -40 -4
-40 -10 0 -5 5 -10 10 -10 6 0 10 -36 10 -88 0 -73 -3 -92 -18 -105 -24 -22
-65 -21 -85 1 -24 26 -25 192 -2 192 8 0 15 5 15 10 0 6 -25 10 -55 10 -30 0
-55 -4 -55 -9z"/>
<path d="M2872 514 c-29 -20 -29 -64 1 -90 12 -11 41 -32 65 -47 44 -29 52
-47 28 -66 -26 -22 -69 -9 -93 28 l-23 34 0 -48 c0 -37 3 -45 13 -37 8 7 18 7
27 2 22 -14 57 -12 90 5 61 32 45 85 -39 130 -54 30 -68 50 -50 71 24 29 89 4
89 -34 0 -6 5 -14 10 -17 6 -4 10 11 10 37 l0 43 -53 3 c-35 1 -60 -3 -75 -14z"/>
</g>
</svg>
